<svg xmlns="http://www.w3.org/2000/svg" viewBox="0 0 24 24" fill="none">
  <path d="M20.625 7.5h-1.5V6.375a1.875 1.875 0 1 0-3.75 0V7.5h-1.5a.375.375 0 0 0-.375.375v6a3.375 3.375 0 0 0 3.375 3.375h.75A3.375 3.375 0 0 0 21 13.875v-6a.375.375 0 0 0-.375-.375zM17.25 6.375a1.125 1.125 0 1 1 2.25 0V7.5h-2.25V6.375z" fill="#6264A7"/>
  <path d="M22.5 9a1.5 1.5 0 1 0 0-3 1.5 1.5 0 0 0 0 3z" fill="#6264A7"/>
  <path d="M22.5 10.5h-1.125a.375.375 0 0 0-.375.375v4.5a4.125 4.125 0 0 1-1.2 2.917A3.375 3.375 0 0 0 22.5 15v-4.125a.375.375 0 0 0-.375-.375H22.5z" fill="#6264A7"/>
  <path d="M13.5 5.25a2.25 2.25 0 1 0-4.5 0 2.25 2.25 0 0 0 4.5 0z" fill="#6264A7"/>
  <path d="M14.625 8.25H7.875a.375.375 0 0 0-.375.375v6.75a4.125 4.125 0 0 0 4.125 4.125h.75a4.125 4.125 0 0 0 4.125-4.125V8.625a.375.375 0 0 0-.375-.375H14.625z" fill="#6264A7"/>
  <path d="M0 8.625v7.5a.375.375 0 0 0 .375.375h8.25a.375.375 0 0 0 .375-.375v-7.5A.375.375 0 0 0 8.625 8.25H.375A.375.375 0 0 0 0 8.625zM6.375 11.25H5.25V14.25h-.75V11.25H3.375v-.75h3v.75z" fill="#6264A7"/>
</svg>
