<svg xmlns="http://www.w3.org/2000/svg" viewBox="0 0 24 24" fill="none">
  <path d="M24 7.387v10.478c0 .23-.08.424-.238.576a.806.806 0 0 1-.588.234h-8.42v-12.5h8.42c.228 0 .424.08.588.236A.77.77 0 0 1 24 7.387zM14.754 5.073v14.26l-14.268-2.46a.477.477 0 0 1-.282-.163A.47.47 0 0 1 .1 16.34V7.66a.478.478 0 0 1 .104-.37.477.477 0 0 1 .282-.163l14.268-2.054zM10.24 14.358c.502-.636.752-1.417.752-2.344 0-.899-.253-1.665-.76-2.298-.507-.633-1.168-.95-1.984-.95-.81 0-1.468.316-1.975.95-.507.633-.76 1.4-.76 2.298 0 .927.25 1.708.752 2.344.502.636 1.162.954 1.983.954.82 0 1.49-.318 1.992-.954zM9.104 13.37c-.247.41-.58.615-1.003.615-.422 0-.754-.205-.998-.615-.244-.41-.366-.938-.366-1.584 0-.635.122-1.154.366-1.556.244-.402.576-.603.998-.603.423 0 .756.201 1.003.603.247.402.37.921.37 1.556 0 .646-.123 1.174-.37 1.584z" fill="#0078D4"/>
</svg>
