<svg xmlns="http://www.w3.org/2000/svg" width="48" height="48" viewBox="0 0 48 48" role="img" aria-label="Tigerpaw User">
  <rect width="48" height="48" rx="6" fill="#1f2937"/>
  <!-- Heel pad -->
  <path d="M24 39 C17 39 11 35 11 29 C11 24 16 21 24 21 C32 21 37 24 37 29 C37 35 31 39 24 39Z" fill="#f97316"/>
  <!-- Toe pads -->
  <ellipse cx="13" cy="17" rx="4" ry="4.5" fill="#f97316"/>
  <ellipse cx="20" cy="13" rx="4" ry="4.8" fill="#f97316"/>
  <ellipse cx="29" cy="13" rx="4" ry="4.8" fill="#f97316"/>
  <ellipse cx="36" cy="17" rx="4" ry="4.5" fill="#f97316"/>
  <!-- Claws -->
  <g fill="#f97316">
    <path d="M11 12 L12.5 14 L14.5 12.5 Z"/>
    <path d="M18.5 8 L19.8 10.2 L21.5 8.8 Z"/>
    <path d="M27.5 8 L28.8 10.2 L30.5 8.8 Z"/>
    <path d="M34.5 12 L36 14 L38 12.5 Z"/>
  </g>
</svg>